# xmcd
#
# Track frame offsets: 
#        150
#        12629
#        25914
#        39122
#        50520
#        59838
#        71913
#        84180
#        93991
#        104350
#        114755
#        129229
#        141718
#        152651
#        165824
#        176835
#        188882
#        199411
#        210512
#        221884
#        233156
#        247984
#        261171
#        273709
#        285714
#        301566
#
# Disc length: 4182 seconds
#
# Revision: 0
# Processed by: cddbd v1.5.2PL0 Copyright (c) Steve Scherf et al.
# Submitted via: ExactAudioCopyFreeDBPlugin 1.0
#
DISCID=7810541a
DTITLE=T-Bone Walker - The Classic Years
DYEAR=1900
DGENRE=Blues
TTITLE0=I know your wig is gone
TTITLE1=You're my best poker hand
TTITLE2=That old feeling is gone
TTITLE3=When the sun goes down
TTITLE4=Teen age baby
TTITLE5=Got no use for you
TTITLE6=Why not?
TTITLE7=Party girl
TTITLE8=I'll always be in love with you
TTITLE9=I walked away
TTITLE10=I can't stand being away from you
TTITLE11=Papa ain't salty
TTITLE12=Vida Lee
TTITLE13=I wish you were mine
TTITLE14=Welcome baby
TTITLE15=Tell me what's the reason
TTITLE16=Pony tail
TTITLE17=Look me in the eye
TTITLE18=Play on little girl
TTITLE19=Every time
TTITLE20=I got a break baby
TTITLE21=I'm still in love with you
TTITLE22=Bye bye baby
TTITLE23=That's better for me
TTITLE24=Evening
TTITLE25=Glamour girl
EXTD=
EXTT0=
EXTT1=
EXTT2=
EXTT3=
EXTT4=
EXTT5=
EXTT6=
EXTT7=
EXTT8=
EXTT9=
EXTT10=
EXTT11=
EXTT12=
EXTT13=
EXTT14=
EXTT15=
EXTT16=
EXTT17=
EXTT18=
EXTT19=
EXTT20=
EXTT21=
EXTT22=
EXTT23=
EXTT24=
EXTT25=
PLAYORDER=
